<?xml version="1.0" encoding="UTF-8" standalone="no"?>
<svg
   width="485.65762"
   zoomAndPan="magnify"
   viewBox="0 0 364.24322 39.421874"
   height="52.5625"
   preserveAspectRatio="xMidYMid"
   version="1.0"
   id="svg27"
   sodipodi:docname="monbaril.fr (2).svg"
   inkscape:version="1.3 (0e150ed, 2023-07-21)"
   xmlns:inkscape="http://www.inkscape.org/namespaces/inkscape"
   xmlns:sodipodi="http://sodipodi.sourceforge.net/DTD/sodipodi-0.dtd"
   xmlns="http://www.w3.org/2000/svg"
   xmlns:svg="http://www.w3.org/2000/svg">
  <sodipodi:namedview
     id="namedview27"
     pagecolor="#ffffff"
     bordercolor="#000000"
     borderopacity="0.25"
     inkscape:showpageshadow="2"
     inkscape:pageopacity="0.0"
     inkscape:pagecheckerboard="0"
     inkscape:deskcolor="#d1d1d1"
     inkscape:zoom="0.8754644"
     inkscape:cx="185.04465"
     inkscape:cy="15.991513"
     inkscape:window-width="1472"
     inkscape:window-height="449"
     inkscape:window-x="62"
     inkscape:window-y="39"
     inkscape:window-maximized="0"
     inkscape:current-layer="svg27" />
  <defs
     id="defs1">
    <g
       id="g1" />
  </defs>
  <g
     fill="#4d4d4d"
     fill-opacity="1"
     id="g4"
     transform="translate(-3.2343795,-165.39061)">
    <g
       transform="translate(4.5e-6,203.99999)"
       id="g3">
      <g
         id="g2">
        <path
           d="M 35.09375,0 H 23.765625 L 17.28125,-21.0625 V 0 H 3.234375 V -37.796875 H 23.21875 l 6.21875,20.515625 6.203125,-20.515625 H 55.625 V 0 H 41.578125 v -21.0625 z m 0,0"
           id="path1" />
      </g>
    </g>
  </g>
  <g
     fill="#4d4d4d"
     fill-opacity="1"
     id="g7"
     transform="translate(-3.2343795,-165.39061)">
    <g
       transform="translate(58.86002,203.99999)"
       id="g6">
      <g
         id="g5">
        <path
           d="m 29.15625,-18.90625 c 0,-1.90625 -0.585938,-3.457031 -1.75,-4.65625 -1.167969,-1.207031 -2.5625,-1.8125 -4.1875,-1.8125 -1.617188,0 -3.011719,0.605469 -4.1875,1.8125 -1.167969,1.199219 -1.75,2.75 -1.75,4.65625 0,1.875 0.582031,3.429688 1.75,4.65625 1.175781,1.21875 2.570312,1.828125 4.1875,1.828125 1.625,0 3.019531,-0.609375 4.1875,-1.828125 1.164062,-1.226562 1.75,-2.78125 1.75,-4.65625 z m 15.125,0 c 0,2.78125 -0.515625,5.371094 -1.546875,7.765625 -1.023437,2.386719 -2.46875,4.46875 -4.34375,6.25 -1.875,1.78125 -4.101563,3.179687 -6.671875,4.1875 -2.574219,1.007813 -5.40625,1.515625 -8.5,1.515625 -3.09375,0 -5.929688,-0.507812 -8.5,-1.515625 -2.574219,-1.007813 -4.796875,-2.40625 -6.671875,-4.1875 -1.875,-1.78125 -3.328125,-3.863281 -4.359375,-6.25 -1.023438,-2.394531 -1.53125,-4.984375 -1.53125,-7.765625 0,-2.769531 0.507812,-5.347656 1.53125,-7.734375 1.03125,-2.394531 2.484375,-4.484375 4.359375,-6.265625 1.875,-1.78125 4.097656,-3.175781 6.671875,-4.1875 2.570312,-1.007812 5.40625,-1.515625 8.5,-1.515625 3.09375,0 5.925781,0.507813 8.5,1.515625 2.570312,1.011719 4.796875,2.40625 6.671875,4.1875 1.875,1.78125 3.320313,3.871094 4.34375,6.265625 1.03125,2.386719 1.546875,4.964844 1.546875,7.734375 z m 0,0"
           id="path4" />
      </g>
    </g>
  </g>
  <g
     fill="#4d4d4d"
     fill-opacity="1"
     id="g10"
     transform="translate(-3.2343795,-165.39061)">
    <g
       transform="translate(105.30004,203.99999)"
       id="g9">
      <g
         id="g8">
        <path
           d="M 26.453125,0 17.28125,-16.734375 V 0 H 3.234375 V -37.796875 H 18.90625 L 28.078125,-21.0625 V -37.796875 H 42.125 V 0 Z m 0,0"
           id="path7" />
      </g>
    </g>
  </g>
  <g
     fill="#4d4d4d"
     fill-opacity="1"
     id="g13"
     transform="translate(-3.2343795,-165.39061)">
    <g
       transform="translate(150.66005,203.99999)"
       id="g12">
      <g
         id="g11">
        <path
           d="m 29.15625,-19.984375 v 0.28125 c 0,0 0.285156,0.07422 0.859375,0.21875 0.582031,0.136719 1.304687,0.398437 2.171875,0.78125 0.863281,0.375 1.726562,0.917969 2.59375,1.625 0.863281,0.699219 1.582031,1.605469 2.15625,2.71875 0.570312,1.117187 0.859375,2.480469 0.859375,4.09375 0,1.980469 -0.59375,3.792969 -1.78125,5.4375 -1.1875,1.636719 -3.125,2.945313 -5.8125,3.921875 C 27.523438,0.0625 23.9375,0.546875 19.4375,0.546875 16.5625,0.546875 13.890625,0.5 11.421875,0.40625 8.953125,0.3125 6.96875,0.21875 5.46875,0.125 3.976562,0.0390625 3.234375,0 3.234375,0 v -37.796875 c 0,0 0.742187,-0.03906 2.234375,-0.125 1.5,-0.09375 3.460938,-0.1875 5.890625,-0.28125 2.4375,-0.09375 5.039063,-0.140625 7.8125,-0.140625 4.0625,0 7.332031,0.492188 9.8125,1.46875 2.488281,0.96875 4.3125,2.246094 5.46875,3.828125 1.15625,1.585937 1.734375,3.328125 1.734375,5.234375 0,1.625 -0.355469,2.953125 -1.0625,3.984375 -0.699219,1.023437 -1.515625,1.8125 -2.453125,2.375 -0.9375,0.554687 -1.761719,0.9375 -2.46875,1.15625 -0.699219,0.210937 -1.046875,0.3125 -1.046875,0.3125 z M 17.28125,-28.625 v 4.859375 h 1.890625 c 0.9375,0 1.664063,-0.226563 2.1875,-0.6875 0.519531,-0.46875 0.78125,-1.046875 0.78125,-1.734375 0,-0.6875 -0.261719,-1.265625 -0.78125,-1.734375 -0.523437,-0.46875 -1.25,-0.703125 -2.1875,-0.703125 z m 2.15625,19.4375 c 1.082031,0 1.894531,-0.25 2.4375,-0.75 0.539062,-0.5 0.8125,-1.144531 0.8125,-1.9375 0,-0.832031 -0.273438,-1.488281 -0.8125,-1.96875 -0.542969,-0.488281 -1.355469,-0.734375 -2.4375,-0.734375 H 17.28125 V -9.1875 c 0,0 0.222656,0 0.671875,0 0.445313,0 0.941406,0 1.484375,0 z m 0,0"
           id="path10" />
      </g>
    </g>
  </g>
  <g
     fill="#4d4d4d"
     fill-opacity="1"
     id="g16"
     transform="translate(-3.2343795,-165.39061)">
    <g
       transform="translate(190.08006,203.99999)"
       id="g15">
      <g
         id="g14">
        <path
           d="m 29.96875,-37.796875 c 0,0.03125 0.160156,0.589844 0.484375,1.671875 0.320313,1.085938 0.742187,2.527344 1.265625,4.328125 0.53125,1.792969 1.117188,3.808594 1.765625,6.046875 0.644531,2.230469 1.316406,4.542969 2.015625,6.9375 0.707031,2.386719 1.394531,4.699219 2.0625,6.9375 0.664062,2.230469 1.257812,4.234375 1.78125,6.015625 0.519531,1.78125 0.929688,3.203125 1.234375,4.265625 C 40.890625,-0.53125 41.046875,0 41.046875,0 H 25.375 L 24.296875,-5.40625 H 17.28125 L 16.203125,0 H 0.546875 l 11.0625,-37.796875 z m -11.0625,23.75 h 3.78125 l -1.890625,-9.71875 z m 0,0"
           id="path13" />
      </g>
    </g>
  </g>
  <g
     fill="#4d4d4d"
     fill-opacity="1"
     id="g21"
     transform="translate(-3.2343795,-165.39061)">
    <g
       transform="translate(231.66008,203.99999)"
       id="g18">
      <g
         id="g17">
        <path
           d="M 40.5,0 H 24.296875 L 17.8125,-12.421875 H 17.28125 V 0 H 3.234375 v -37.796875 c 0,0 0.429687,-0.02344 1.296875,-0.07813 0.863281,-0.0625 2.035156,-0.125 3.515625,-0.1875 1.476563,-0.07031 3.148437,-0.132812 5.015625,-0.1875 1.875,-0.0625 3.820312,-0.09375 5.84375,-0.09375 3.957031,0 7.210938,0.5625 9.765625,1.6875 2.5625,1.117188 4.453125,2.664062 5.671875,4.640625 1.226562,1.980469 1.84375,4.28125 1.84375,6.90625 0,1.949219 -0.246094,3.601563 -0.734375,4.953125 -0.492187,1.34375 -1.058594,2.433594 -1.703125,3.265625 -0.648438,0.824219 -1.214844,1.417969 -1.703125,1.78125 -0.492187,0.355469 -0.734375,0.53125 -0.734375,0.53125 z M 17.28125,-22.140625 h 1.625 c 0.925781,0 1.695312,-0.296875 2.3125,-0.890625 0.613281,-0.59375 0.921875,-1.285156 0.921875,-2.078125 0,-0.832031 -0.308594,-1.535156 -0.921875,-2.109375 -0.617188,-0.570312 -1.386719,-0.859375 -2.3125,-0.859375 h -1.625 z m 0,0"
           id="path16" />
      </g>
    </g>
    <g
       transform="translate(271.08008,203.99999)"
       id="g20">
      <g
         id="g19">
        <path
           d="M 17.28125,-37.796875 V 0 H 3.234375 v -37.796875 z m 0,0"
           id="path18" />
      </g>
    </g>
  </g>
  <g
     fill="#4d4d4d"
     fill-opacity="1"
     id="g24"
     transform="translate(-3.2343795,-165.39061)">
    <g
       transform="translate(291.60009,203.99999)"
       id="g23">
      <g
         id="g22">
        <path
           d="m 17.28125,-37.796875 v 25.375 H 31.859375 V 0 h -28.625 v -37.796875 z m 0,0"
           id="path21" />
      </g>
    </g>
  </g>
  <g
     fill="#4d4d4d"
     fill-opacity="1"
     id="g27"
     transform="translate(-3.2343795,-165.39061)">
    <g
       transform="translate(324.5401,203.99999)"
       id="g26">
      <g
         id="g25">
        <path
           d="m 1.078125,-37.796875 h 15.65625 v 5.9375 h -4.3125 v 9.71875 H 5.40625 v -9.71875 H 1.078125 Z m 32.125,15.65625 H 27.8125 l -2.703125,-8.640625 v 8.640625 H 18.09375 v -15.65625 h 9.71875 l 2.703125,8.640625 2.6875,-8.640625 H 42.9375 v 15.65625 h -7.03125 v -8.640625 z m 0,0"
           id="path24" />
      </g>
    </g>
  </g>
</svg>
